<?xml version="1.0" encoding="UTF-8"?><svg id="Layer_2" xmlns="http://www.w3.org/2000/svg" viewBox="0 0 644.16 394.93"><defs><style>.cls-1{fill:#f9a44d;}</style></defs><path class="cls-1" d="M640.63,215.6l-282.46,15.88v-1.77c0-17.63-5.81-33.79-14.74-43.92l62.54-9.44c1.49-.23,1.26-2.44-.24-2.36l-71.84,4.04c-1.6-.86-3.25-1.55-4.94-2.06l-6.86-71.24-6.86,71.24c-1.69,.51-3.34,1.2-4.94,2.06l-71.84-4.04c-1.51-.08-1.74,2.13-.24,2.36l62.54,9.44c-8.94,10.13-14.74,26.29-14.74,43.92v1.77L3.54,215.6c-4.25-.24-4.9,6.02-.69,6.65l126.68,19.12c19.96,87.93,98.58,153.57,192.55,153.57s172.59-65.64,192.55-153.57l126.69-19.12c4.21-.64,3.56-6.89-.69-6.65Zm-316.91,17.71l30.29-4.44c-10.66,15.23-30.29,17.09-30.29,17.09v-12.65Zm-3.27,0v12.65s-19.63-1.86-30.29-17.09l30.29,4.44Zm1.63,142.3c-82.11,0-151.22-55.56-171.84-131.12l33.95,5.12c-.03,.5-.06,1.01-.06,1.53,0,9.25,5.86,16.75,13.08,16.75,6.59,0,12.03-6.24,12.93-14.36l12.59,1.9c0,.06,0,.12,0,.18,0,11.72,7.42,21.22,16.57,21.22,7.88,0,14.47-7.04,16.15-16.47l32.42,4.89v-1.55c5.95,15.28,24.62,26.51,34.2,26.51s28.25-11.23,34.2-26.51v1.55l32.42-4.89c1.69,9.43,8.28,16.47,16.15,16.47,9.15,0,16.57-9.5,16.57-21.22,0-.06,0-.12,0-.18l12.59-1.9c.91,8.12,6.34,14.36,12.93,14.36,7.22,0,13.08-7.5,13.08-16.75,0-.52-.02-1.02-.06-1.53l33.95-5.12c-20.63,75.57-89.74,131.12-171.85,131.12Z"/><path class="cls-1" d="M144.18,206.81c-.16-3.09-.24-6.21-.24-9.34,0-98.39,79.76-178.14,178.14-178.14s178.14,79.76,178.14,178.14c0,3.13-.08,6.25-.24,9.34l19.38-1.09c.11-2.74,.18-5.49,.18-8.25C519.55,88.41,431.14,0,322.08,0S124.62,88.41,124.62,197.46c0,2.77,.07,5.51,.18,8.25l19.38,1.09Z"/></svg>